<svg width="44" height="45" viewBox="0 0 44 45" fill="none" xmlns="http://www.w3.org/2000/svg">
<rect y="0.5" width="44" height="44" rx="22" fill="#F0F6FF"/>
<path d="M22 12.5C19.38 12.5 17.25 14.63 17.25 17.25C17.25 19.82 19.26 21.9 21.88 21.99C21.96 21.98 22.04 21.98 22.1 21.99C22.12 21.99 22.13 21.99 22.15 21.99C22.16 21.99 22.16 21.99 22.17 21.99C24.73 21.9 26.74 19.82 26.75 17.25C26.75 14.63 24.62 12.5 22 12.5Z" fill="#4A92F3"/>
<path d="M27.0809 24.65C24.2909 22.79 19.7409 22.79 16.9309 24.65C15.6609 25.5 14.9609 26.65 14.9609 27.88C14.9609 29.11 15.6609 30.25 16.9209 31.09C18.3209 32.03 20.1609 32.5 22.0009 32.5C23.8409 32.5 25.6809 32.03 27.0809 31.09C28.3409 30.24 29.0409 29.1 29.0409 27.86C29.0309 26.63 28.3409 25.49 27.0809 24.65Z" fill="#94C1FF"/>
</svg>
