<svg width="44" height="45" viewBox="0 0 44 45" fill="none" xmlns="http://www.w3.org/2000/svg">
<rect y="0.5" width="44" height="44" rx="22" fill="#F0F6FF"/>
<path fill-rule="evenodd" clip-rule="evenodd" d="M23.5004 12.9C24.6596 12.9 25.6004 13.8408 25.6004 15V16.5L22.0004 18.3L18.4004 16.5V15C18.4004 13.8408 19.3412 12.9 20.5004 12.9H23.5004ZM20.5004 14.1C20.2617 14.1 20.0328 14.1948 19.864 14.3636C19.6952 14.5324 19.6004 14.7613 19.6004 15V16.5H24.4004V15C24.4004 14.7613 24.3056 14.5324 24.1368 14.3636C23.968 14.1948 23.7391 14.1 23.5004 14.1H20.5004Z" fill="url(#paint0_linear_18515_1279)"/>
<path d="M13.5996 20.1H30.3996V26.7C30.3996 27.4956 30.0835 28.2587 29.5209 28.8213C28.9583 29.3839 28.1953 29.7 27.3996 29.7H16.5996C15.804 29.7 15.0409 29.3839 14.4783 28.8213C13.9157 28.2587 13.5996 27.4956 13.5996 26.7V20.1Z" fill="url(#paint1_linear_18515_1279)"/>
<path d="M13.5996 20.1H30.3996V26.7C30.3996 27.4956 30.0835 28.2587 29.5209 28.8213C28.9583 29.3839 28.1953 29.7 27.3996 29.7H16.5996C15.804 29.7 15.0409 29.3839 14.4783 28.8213C13.9157 28.2587 13.5996 27.4956 13.5996 26.7V20.1Z" fill="url(#paint2_radial_18515_1279)"/>
<path d="M13.5996 19.5C13.5996 18.7044 13.9157 17.9413 14.4783 17.3787C15.0409 16.8161 15.804 16.5 16.5996 16.5H27.3996C28.1953 16.5 28.9583 16.8161 29.5209 17.3787C30.0835 17.9413 30.3996 18.7044 30.3996 19.5V21.9C30.3996 22.3774 30.21 22.8352 29.8724 23.1728C29.5348 23.5104 29.077 23.7 28.5996 23.7H15.3996C14.9222 23.7 14.4644 23.5104 14.1268 23.1728C13.7893 22.8352 13.5996 22.3774 13.5996 21.9V19.5Z" fill="url(#paint3_linear_18515_1279)"/>
<path d="M22.5988 21.3H21.3988C21.2397 21.3 21.0871 21.3633 20.9746 21.4758C20.862 21.5883 20.7988 21.7409 20.7988 21.9V24.3144C20.7988 24.4736 20.862 24.6262 20.9746 24.7387C21.0871 24.8512 21.2397 24.9144 21.3988 24.9144H22.5988C22.6777 24.9146 22.7559 24.8992 22.8288 24.8691C22.9017 24.839 22.968 24.7949 23.0239 24.7391C23.0797 24.6834 23.124 24.6172 23.1542 24.5443C23.1845 24.4715 23.2 24.3933 23.2 24.3144V21.9C23.2 21.7409 23.1368 21.5883 23.0243 21.4758C22.9118 21.3633 22.7592 21.3 22.6 21.3" fill="url(#paint4_linear_18515_1279)"/>
<defs>
<linearGradient id="paint0_linear_18515_1279" x1="18.074" y1="13.44" x2="19.976" y2="19.1664" gradientUnits="userSpaceOnUse">
<stop stop-color="#0094F0"/>
<stop offset="1" stop-color="#163697"/>
</linearGradient>
<linearGradient id="paint1_linear_18515_1279" x1="14.1996" y1="21.9" x2="19.986" y2="39.1644" gradientUnits="userSpaceOnUse">
<stop stop-color="#0FAFFF"/>
<stop offset="1" stop-color="#CC23D1"/>
</linearGradient>
<radialGradient id="paint2_radial_18515_1279" cx="0" cy="0" r="1" gradientUnits="userSpaceOnUse" gradientTransform="translate(21.9996 20.1) rotate(90) scale(9.6 18.7261)">
<stop offset="0.243" stop-color="#194694"/>
<stop offset="0.747" stop-color="#367AF2" stop-opacity="0"/>
</radialGradient>
<linearGradient id="paint3_linear_18515_1279" x1="15.2796" y1="16.7988" x2="23.178" y2="26.1216" gradientUnits="userSpaceOnUse">
<stop stop-color="#80F1E6"/>
<stop offset="0.552" stop-color="#40C4F5"/>
<stop offset="1" stop-color="#00A2FA"/>
</linearGradient>
<linearGradient id="paint4_linear_18515_1279" x1="22" y1="21.3" x2="22" y2="23.7012" gradientUnits="userSpaceOnUse">
<stop stop-color="#B8F5FF"/>
<stop offset="0.844" stop-color="#7CECFF"/>
</linearGradient>
</defs>
</svg>
