<svg width="32" height="32" viewBox="0 0 32 32" fill="none" xmlns="http://www.w3.org/2000/svg">
<path fill-rule="evenodd" clip-rule="evenodd" d="M18.6966 21.9774L13.9393 25.5094C13.6593 25.7228 13.2459 26.1494 12.8059 26.4561C12.6602 26.596 12.4731 26.6849 12.2726 26.7094C11.7318 26.6329 11.2332 26.3742 10.8593 25.9761C10.1589 25.2756 9.51346 24.5222 8.92859 23.7228C7.87525 22.3894 6.84859 21.0574 5.86192 19.7241C4.87525 18.3908 3.96992 16.9921 3.10325 15.5668C1.30459 12.6601 1.41125 13.6868 2.10325 12.9401C2.52103 12.469 2.96547 12.025 3.43659 11.6081C3.9077 11.1912 4.40103 10.8045 4.91659 10.4481L7.58192 8.32943L8.46192 7.64943C8.67525 7.64943 8.90192 7.88943 9.14192 8.10276C9.47259 8.41298 9.7837 8.74187 10.0753 9.08943L11.4073 10.6894L15.7779 16.5388C15.8156 16.5895 15.8628 16.6324 15.9171 16.6649C15.9713 16.6974 16.0314 16.7189 16.0939 16.7282C16.1564 16.7375 16.2201 16.7344 16.2815 16.719C16.3428 16.7037 16.4005 16.6764 16.4513 16.6388C16.502 16.6011 16.5449 16.5538 16.5774 16.4996C16.6099 16.4454 16.6314 16.3853 16.6407 16.3228C16.65 16.2603 16.6469 16.1965 16.6315 16.1352C16.6162 16.0739 16.5889 16.0162 16.5513 15.9654L12.3393 9.98409L11.0726 8.30409C10.6365 7.73281 10.1358 7.21381 9.58059 6.75743C9.22441 6.47512 8.7817 6.32441 8.32725 6.33076C8.0857 6.37417 7.85508 6.46479 7.64859 6.59743C7.33925 6.79476 7.04592 7.01254 6.76859 7.25076L4.10325 9.22409C3.52992 9.61076 2.98325 10.0108 2.44992 10.4374C1.91659 10.8792 1.41036 11.3499 0.931253 11.8494C0.609535 12.1638 0.323369 12.5125 0.0779192 12.8894C0.0265268 13.0072 0 13.1343 0 13.2628C0 13.3912 0.0265268 13.5183 0.0779192 13.6361C0.205919 13.9748 0.365919 14.2992 0.557919 14.6094C0.931253 15.2348 1.42459 15.8481 1.77125 16.4081C2.63792 17.8601 3.55792 19.2988 4.59659 20.6854C5.63525 22.0721 6.72992 23.3521 7.86192 24.6841C8.63736 25.6788 9.53257 26.574 10.5273 27.3494C11.0393 27.7228 11.6526 27.9361 12.2873 27.9628C12.653 27.9448 13.0054 27.8196 13.3006 27.6028C13.7681 27.2383 14.2121 26.8472 14.6326 26.4294C15.5393 25.6828 16.4459 24.9094 17.2979 24.1774C17.9024 23.6894 18.5157 23.2094 19.1379 22.7374C19.2118 22.6673 19.2581 22.5731 19.2686 22.4718C19.2791 22.3705 19.253 22.2688 19.195 22.1851C19.137 22.1013 19.051 22.0411 18.9525 22.0153C18.854 21.9894 18.7495 21.9996 18.6579 22.0441L18.6966 21.9774Z" fill="#0C6FFF"/>
<path fill-rule="evenodd" clip-rule="evenodd" d="M11.8854 14.9C11.3626 14.3886 10.6793 14.0734 9.95088 14.0078C9.2225 13.9422 8.49381 14.1302 7.88807 14.54C7.54167 14.8246 7.25754 15.1774 7.05339 15.5766C6.84923 15.9757 6.72942 16.4126 6.70141 16.86C6.6636 17.3114 6.73331 17.7654 6.90482 18.1846C7.07632 18.6039 7.34474 18.9765 7.68807 19.272C8.21607 19.6827 8.87074 19.8987 9.54141 19.8854C10.1641 19.8947 10.7787 19.7294 11.3134 19.4054C11.4105 19.347 11.4813 19.2534 11.5111 19.1441C11.5409 19.0348 11.5274 18.9183 11.4734 18.8187C11.5394 18.8233 11.6057 18.8138 11.6678 18.7908C11.7298 18.7678 11.7863 18.7318 11.8334 18.6854C12.1179 18.4606 12.3487 18.1752 12.509 17.85C12.6693 17.5248 12.7552 17.1679 12.7603 16.8054C12.7654 16.4428 12.6896 16.0837 12.5385 15.7541C12.3874 15.4245 12.1648 15.1328 11.8867 14.9M11.1134 17.9787C11.0356 18.0645 10.9926 18.1762 10.9926 18.292C10.9926 18.4079 11.0356 18.5195 11.1134 18.6054H10.9534C10.5344 18.7872 10.0715 18.8428 9.62141 18.7654C9.22897 18.7172 8.86576 18.5332 8.59474 18.2454C8.44297 18.0626 8.33617 17.8467 8.28291 17.6152C8.22965 17.3836 8.23142 17.1428 8.28807 16.912C8.33003 16.4517 8.5501 16.0259 8.90141 15.7254C9.20513 15.5035 9.57542 15.3919 9.95114 15.4089C10.3269 15.4258 10.6856 15.5704 10.9681 15.8187C11.1478 15.9303 11.2983 16.083 11.4073 16.2642C11.5164 16.4455 11.5807 16.6501 11.595 16.8611C11.6093 17.0721 11.5733 17.2835 11.4897 17.4779C11.4062 17.6722 11.2777 17.8439 11.1147 17.9787M23.1334 8.5427C23.0044 7.84476 22.8357 7.15475 22.6281 6.47603C22.4411 5.908 22.2 5.35926 21.9081 4.83736C21.6639 4.39742 21.2855 4.04704 20.8281 3.83736C20.5121 3.72474 20.1741 3.6882 19.8414 3.7307C19.2672 3.83736 18.7036 3.98403 18.1507 4.1707C18.0428 4.20039 17.9505 4.27086 17.8935 4.36723C17.8365 4.4636 17.8191 4.57835 17.845 4.68729C17.871 4.79623 17.9382 4.89084 18.0325 4.95117C18.1269 5.0115 18.241 5.03285 18.3507 5.0107C18.7907 4.9227 19.2347 4.86492 19.6827 4.83736C19.8899 4.82228 20.0973 4.86376 20.2827 4.95736C20.4694 5.06403 20.5494 5.30403 20.6561 5.5307C20.8472 5.99114 20.9894 6.4667 21.0827 6.95736C21.3361 7.70403 21.5094 8.46403 21.6961 9.2227C21.8827 9.98136 22.1361 10.7827 22.3494 11.556C22.5627 12.3294 22.6814 12.648 22.6814 12.6614C22.7881 13.2214 23.5081 12.768 23.5614 11.9547C23.2947 10.5814 23.4001 9.9147 23.1334 8.5427Z" fill="#0C6FFF"/>
<path fill-rule="evenodd" clip-rule="evenodd" d="M31.9597 22.0307C31.8683 21.061 31.6393 20.1093 31.2797 19.2041C30.9238 18.2881 30.4193 17.4371 29.7864 16.6854C28.2624 14.9419 26.2231 13.7287 23.9637 13.2214C23.4837 12.9947 23.1237 13.3414 23.137 13.9147C22.9305 14.6606 22.6113 15.3706 22.1904 16.0201C21.6804 16.4295 21.0689 16.6929 20.4211 16.7821C19.7732 16.8714 19.1133 16.7831 18.5117 16.5267C18.1394 16.4488 17.752 16.4908 17.405 16.6467C16.9746 16.7814 16.6005 17.054 16.3405 17.4225C16.0805 17.7909 15.949 18.2348 15.9664 18.6854C15.9645 19.1014 16.06 19.5121 16.2452 19.8846C16.4304 20.2571 16.7002 20.5811 17.033 20.8307C17.2064 20.9241 17.5664 21.0974 18.0197 21.2841C19.0464 21.7107 20.685 22.2707 21.3117 22.6174C21.205 22.8841 21.5917 23.5907 21.6584 23.7907C21.9742 24.6784 22.4581 25.4969 23.0837 26.2014C23.3213 26.4743 23.6172 26.6903 23.9496 26.8334C24.2819 26.9765 24.6422 27.043 25.0037 27.0281C25.0667 27.0281 25.1292 27.0157 25.1874 26.9915C25.2456 26.9674 25.2985 26.9321 25.3431 26.8875C25.3877 26.8429 25.423 26.79 25.4472 26.7318C25.4713 26.6735 25.4837 26.6111 25.4837 26.5481C25.4837 26.485 25.4713 26.4226 25.4472 26.3644C25.423 26.3061 25.3877 26.2532 25.3431 26.2087C25.2985 26.1641 25.2456 26.1287 25.1874 26.1046C25.1292 26.0805 25.0667 26.0681 25.0037 26.0681C24.7886 26.0546 24.5791 25.9938 24.3901 25.8901C24.2011 25.7864 24.0373 25.6423 23.9104 25.4681C23.4349 24.8512 23.0901 24.1439 22.897 23.3894C22.8304 23.1494 22.8037 22.3894 22.697 22.0561C22.6479 21.8716 22.5344 21.7108 22.377 21.6027C22.0619 21.4009 21.7321 21.2231 21.3904 21.0707C20.2304 20.5374 18.3397 19.7374 17.8997 19.4707C17.8039 19.3697 17.7297 19.2502 17.6816 19.1195C17.6335 18.9889 17.6124 18.8498 17.6197 18.7107C17.6078 18.594 17.6338 18.4765 17.6938 18.3756C17.7538 18.2748 17.8447 18.1959 17.953 18.1507C18.1074 18.1233 18.2654 18.1233 18.4197 18.1507C19.0704 18.2165 19.7233 18.2432 20.3784 18.2307C20.9656 18.179 21.5342 17.9981 22.0434 17.701C22.5525 17.4039 22.9897 16.9979 23.3237 16.5121C23.7437 15.8263 23.9653 15.0375 23.9637 14.2334C25.7924 14.9056 27.3886 16.0907 28.561 17.6467C29.0544 18.3094 29.457 19.0361 29.761 19.8041C30.073 20.5814 30.297 21.3907 30.4277 22.2174C30.7344 24.2227 30.6424 26.2707 30.161 28.2414C30.1278 28.3651 30.144 28.4969 30.2063 28.6089C30.2685 28.7209 30.3718 28.8042 30.4944 28.8414C30.6163 28.8742 30.7463 28.8576 30.8562 28.7952C30.966 28.7328 31.0468 28.6296 31.081 28.5081C31.8224 26.4334 32.1197 24.2281 31.9597 22.0307Z" fill="#020202"/>
<path fill-rule="evenodd" clip-rule="evenodd" d="M19.8018 13.4214C19.4151 12.088 19.0684 10.7547 18.6951 9.42138C18.4551 8.52938 18.1751 7.64938 17.9218 6.75738C17.7139 5.82635 17.3774 4.92883 16.9218 4.09071C16.7714 3.83247 16.5633 3.6126 16.3137 3.44834C16.064 3.28409 15.7797 3.17993 15.4831 3.14405C15.2703 3.13129 15.0581 3.17742 14.8698 3.27738C14.5293 3.48183 14.2004 3.70405 13.8831 3.94405L10.6324 6.01071C10.5725 6.0274 10.517 6.05697 10.4698 6.09736C10.4225 6.13774 10.3847 6.18796 10.3589 6.24451C10.333 6.30106 10.3199 6.36256 10.3203 6.42472C10.3208 6.48688 10.3348 6.54819 10.3614 6.60437C10.388 6.66054 10.4266 6.71023 10.4744 6.74994C10.5222 6.78966 10.5781 6.81844 10.6382 6.83429C10.6983 6.85013 10.7612 6.85265 10.8224 6.84167C10.8835 6.83069 10.9416 6.80647 10.9924 6.77071L14.5111 5.09071C15.1111 4.78405 15.2844 3.90405 15.8444 5.49071C16.0844 6.13071 16.2311 6.82405 16.3378 7.21071C16.8564 8.79605 17.3631 10.368 17.9231 11.9414C18.4831 13.5147 18.8431 14.088 19.4431 15.5C19.7084 16.2734 20.4018 16.46 20.4018 15.8867C20.1218 14.9534 20.0818 14.3534 19.8018 13.42" fill="#0C6FFF"/>
</svg>
