<svg width="144" height="144" viewBox="0 0 144 144" fill="none" xmlns="http://www.w3.org/2000/svg">
<rect width="144" height="144" rx="72" fill="#F0F6FF"/>
<path d="M103.867 67.8L99.3336 62.5333C98.4669 61.5333 97.7669 59.6667 97.7669 58.3333V52.6667C97.7669 49.1333 94.8669 46.2333 91.3336 46.2333H85.6669C84.3669 46.2333 82.4669 45.5333 81.4669 44.6667L76.2003 40.1333C73.9003 38.1667 70.1336 38.1667 67.8003 40.1333L62.5669 44.7C61.5669 45.5333 59.6669 46.2333 58.3669 46.2333H52.6003C49.0669 46.2333 46.1669 49.1333 46.1669 52.6667V58.3667C46.1669 59.6667 45.4669 61.5333 44.6336 62.5333L40.1336 67.8333C38.2003 70.1333 38.2003 73.8667 40.1336 76.1667L44.6336 81.4667C45.4669 82.4667 46.1669 84.3333 46.1669 85.6333V91.3333C46.1669 94.8667 49.0669 97.7667 52.6003 97.7667H58.3669C59.6669 97.7667 61.5669 98.4667 62.5669 99.3333L67.8336 103.867C70.1336 105.833 73.9003 105.833 76.2336 103.867L81.5003 99.3333C82.5003 98.4667 84.3669 97.7667 85.7003 97.7667H91.3669C94.9003 97.7667 97.8003 94.8667 97.8003 91.3333V85.6667C97.8003 84.3667 98.5003 82.4667 99.3669 81.4667L103.9 76.2C105.834 73.9 105.834 70.1 103.867 67.8ZM85.8669 65.7L69.7669 81.8C69.3003 82.2667 68.6669 82.5333 68.0003 82.5333C67.3336 82.5333 66.7003 82.2667 66.2336 81.8L58.1669 73.7333C57.2003 72.7667 57.2003 71.1667 58.1669 70.2C59.1336 69.2333 60.7336 69.2333 61.7003 70.2L68.0003 76.5L82.3336 62.1667C83.3003 61.2 84.9003 61.2 85.8669 62.1667C86.8336 63.1333 86.8336 64.7333 85.8669 65.7Z" fill="#4A92F3"/>
</svg>
