<svg width="152" height="76" viewBox="0 0 152 76" fill="none" xmlns="http://www.w3.org/2000/svg">
<rect x="5.49362" y="11.1699" width="139.885" height="45.1537" rx="7.54014" transform="rotate(-4.37718 5.49362 11.1699)" fill="#FBFBFC"/>
<rect x="5.49362" y="11.1699" width="139.885" height="45.1537" rx="7.54014" transform="rotate(-4.37718 5.49362 11.1699)" stroke="#F3F4F7" stroke-width="0.919725"/>
<circle cx="29.7297" cy="31.9578" r="11.0367" transform="rotate(-4.37718 29.7297 31.9578)" fill="#F0F1F4"/>
<rect x="54.7031" y="20.8219" width="80.016" height="5.51835" rx="1.83945" transform="rotate(-4.37718 54.7031 20.8219)" fill="#EAEBF0"/>
<rect x="55.6875" y="33.6605" width="80.016" height="5.51835" rx="1.83945" transform="rotate(-4.37718 55.6875 33.6605)" fill="#EAEBF0"/>
<rect x="1" y="28.5" width="150" height="47" rx="9.5" fill="#FCFCFC"/>
<rect x="1" y="28.5" width="150" height="47" rx="9.5" stroke="#F3F4F7"/>
<circle cx="24.5" cy="52" r="12" fill="#F0F1F4"/>
<g clip-path="url(#clip0_19472_10706)">
<path d="M24.7861 50.9044C24.8549 50.6982 25.1461 50.6982 25.2149 50.9044L25.618 52.115C25.7067 52.3812 25.8562 52.623 26.0546 52.8213C26.2531 53.0196 26.4949 53.169 26.7611 53.2575L27.9711 53.6607C28.1774 53.7294 28.1774 54.0207 27.9711 54.0894L26.7605 54.4925C26.4944 54.5813 26.2526 54.7308 26.0543 54.9292C25.8559 55.1276 25.7066 55.3695 25.618 55.6357L25.2149 56.8457C25.2 56.8908 25.1713 56.9302 25.1328 56.958C25.0943 56.9859 25.048 57.0009 25.0005 57.0009C24.953 57.0009 24.9066 56.9859 24.8681 56.958C24.8296 56.9302 24.8009 56.8908 24.7861 56.8457L24.383 55.635C24.2943 55.369 24.1449 55.1272 23.9466 54.9289C23.7483 54.7306 23.5066 54.5812 23.2405 54.4925L22.0299 54.0894C21.9847 54.0746 21.9454 54.0459 21.9175 54.0074C21.8896 53.9689 21.8746 53.9226 21.8746 53.875C21.8746 53.8275 21.8896 53.7812 21.9175 53.7427C21.9454 53.7042 21.9847 53.6755 22.0299 53.6607L23.2405 53.2575C23.5066 53.1689 23.7483 53.0195 23.9466 52.8212C24.1449 52.6229 24.2943 52.3811 24.383 52.115L24.7861 50.9044ZM22.3717 47.7175C22.3807 47.6905 22.398 47.6669 22.4211 47.6502C22.4442 47.6335 22.472 47.6245 22.5005 47.6245C22.529 47.6245 22.5568 47.6335 22.5799 47.6502C22.603 47.6669 22.6203 47.6905 22.6292 47.7175L22.8711 48.4438C22.9792 48.7675 23.233 49.0213 23.5567 49.1294L24.283 49.3713C24.3101 49.3803 24.3336 49.3975 24.3503 49.4206C24.367 49.4437 24.376 49.4715 24.376 49.5C24.376 49.5286 24.367 49.5563 24.3503 49.5795C24.3336 49.6026 24.3101 49.6198 24.283 49.6288L23.5567 49.8707C23.397 49.9237 23.2518 50.0133 23.1328 50.1323C23.0137 50.2513 22.9241 50.3965 22.8711 50.5563L22.6292 51.2825C22.6203 51.3096 22.603 51.3332 22.5799 51.3499C22.5568 51.3665 22.529 51.3755 22.5005 51.3755C22.472 51.3755 22.4442 51.3665 22.4211 51.3499C22.398 51.3332 22.3807 51.3096 22.3717 51.2825L22.1299 50.5563C22.0768 50.3965 21.9872 50.2513 21.8682 50.1323C21.7492 50.0133 21.604 49.9237 21.4442 49.8707L20.718 49.6288C20.6909 49.6198 20.6674 49.6026 20.6507 49.5795C20.634 49.5563 20.625 49.5286 20.625 49.5C20.625 49.4715 20.634 49.4437 20.6507 49.4206C20.6674 49.3975 20.6909 49.3803 20.718 49.3713L21.4442 49.1294C21.604 49.0764 21.7492 48.9868 21.8682 48.8678C21.9872 48.7487 22.0768 48.6036 22.1299 48.4438L22.3717 47.7175ZM26.7899 47.0619C26.796 47.0441 26.8076 47.0287 26.8229 47.0178C26.8383 47.0068 26.8567 47.001 26.8755 47.001C26.8943 47.001 26.9127 47.0068 26.928 47.0178C26.9434 47.0287 26.9549 47.0441 26.9611 47.0619L27.1224 47.5457C27.1942 47.7619 27.3636 47.9313 27.5799 48.0032L28.0636 48.1644C28.0814 48.1706 28.0968 48.1821 28.1078 48.1975C28.1187 48.2128 28.1246 48.2312 28.1246 48.25C28.1246 48.2689 28.1187 48.2872 28.1078 48.3026C28.0968 48.3179 28.0814 48.3295 28.0636 48.3357L27.5799 48.4969C27.4734 48.5325 27.3766 48.5924 27.2973 48.6718C27.2179 48.7512 27.158 48.8479 27.1224 48.9544L26.9611 49.4382C26.9549 49.456 26.9434 49.4714 26.928 49.4823C26.9127 49.4932 26.8943 49.4991 26.8755 49.4991C26.8567 49.4991 26.8383 49.4932 26.8229 49.4823C26.8076 49.4714 26.796 49.456 26.7899 49.4382L26.6286 48.9544C26.593 48.8479 26.5331 48.7512 26.4537 48.6718C26.3743 48.5924 26.2776 48.5325 26.1711 48.4969L25.688 48.3357C25.6702 48.3295 25.6548 48.3179 25.6438 48.3026C25.6329 48.2872 25.6271 48.2689 25.6271 48.25C25.6271 48.2312 25.6329 48.2128 25.6438 48.1975C25.6548 48.1821 25.6702 48.1706 25.688 48.1644L26.1717 48.0032C26.388 47.9313 26.5574 47.7619 26.6292 47.5457L26.7899 47.0619Z" fill="#6E7181"/>
</g>
<rect x="52.5" y="42" width="87" height="6" rx="2" fill="#EAEBF0"/>
<rect x="52.5" y="56" width="87" height="6" rx="2" fill="#EAEBF0"/>
<defs>
<clipPath id="clip0_19472_10706">
<rect width="10" height="10" fill="white" transform="translate(20 47)"/>
</clipPath>
</defs>
</svg>
