<svg width="17" height="17" viewBox="0 0 17 17" fill="none" xmlns="http://www.w3.org/2000/svg">
<path d="M5.7609 5.73122C5.8164 5.69349 5.86374 5.64498 5.9001 5.58856C5.93645 5.53215 5.96108 5.469 5.97251 5.40287C5.98394 5.33674 5.98194 5.26898 5.96663 5.20364C5.95132 5.13829 5.92301 5.0767 5.88339 5.02253C5.84377 4.96836 5.79365 4.92273 5.73602 4.88834C5.67839 4.85395 5.61442 4.83151 5.54793 4.82237C5.48145 4.81323 5.4138 4.81756 5.34903 4.83512C5.28425 4.85267 5.22367 4.88309 5.1709 4.92455L5.7609 5.73122ZM3.33423 12.5006L2.84023 12.5792C2.85804 12.6893 2.91213 12.7903 2.99391 12.8661C3.07568 12.9419 3.18045 12.9882 3.29156 12.9976C3.40266 13.007 3.51373 12.979 3.60711 12.9181C3.70048 12.8571 3.77081 12.7667 3.8069 12.6612L3.33423 12.5006ZM7.52223 9.45989C7.64795 9.41745 7.75165 9.32682 7.81054 9.20792C7.86943 9.08902 7.87867 8.9516 7.83623 8.82589C7.7938 8.70017 7.70316 8.59647 7.58427 8.53758C7.46537 8.47869 7.32795 8.46945 7.20223 8.51189L7.52223 9.45989ZM9.75023 3.27455L9.91223 3.47855L10.6962 2.85789L10.5342 2.65389L9.75023 3.27455ZM11.1969 4.15789L11.4502 4.17322L11.5122 3.17522L11.2589 3.15989L11.1969 4.15789ZM12.0749 5.46189L11.9396 5.68189L12.7909 6.20655L12.9269 5.98655L12.0749 5.46189ZM11.7282 7.12855L11.7942 7.38189L12.7616 7.12922L12.6949 6.87522L11.7282 7.12855ZM10.8576 8.39055L10.6122 8.32255L10.3456 9.28655L10.5902 9.35455L10.8576 8.39055ZM9.18223 8.55189L8.97023 8.69322L9.5249 9.52522L9.7369 9.38389L9.18223 8.55189ZM7.76623 8.02789L7.75023 7.76589L6.75157 7.82722L6.76823 8.08922L7.76623 8.02789ZM7.09757 6.45855L6.90023 6.29189L6.2549 7.05522L6.45223 7.22189L7.09757 6.45855ZM7.0929 4.87189L7.32823 4.77789L6.9569 3.84922L6.72157 3.94322L7.0929 4.87189ZM8.3369 3.73189L8.4269 3.48722L7.48823 3.14189L7.3989 3.38589L8.3369 3.73189ZM7.32823 4.77789C7.54623 4.69122 7.7989 4.60055 7.98557 4.40655L7.26423 3.71322C7.27023 3.70789 7.26757 3.71455 7.22223 3.73722C7.13516 3.77773 7.04666 3.81508 6.9569 3.84922L7.32823 4.77789ZM7.3989 3.38589C7.36587 3.47968 7.32985 3.5724 7.2909 3.66389C7.26757 3.71389 7.25957 3.71855 7.26423 3.71322L7.98557 4.40655C8.17023 4.21455 8.25357 3.95855 8.3369 3.73189L7.3989 3.38589ZM6.90023 6.29122C6.50623 5.95789 6.2549 5.74455 6.1009 5.56989C6.0555 5.52263 6.01731 5.46895 5.98757 5.41055C5.98312 5.39989 5.98157 5.39544 5.9829 5.39722V5.40122L4.99357 5.25722C4.93357 5.66389 5.13357 5.98455 5.3509 6.23189C5.5649 6.47389 5.88557 6.74322 6.2549 7.05522L6.90023 6.29122ZM6.7209 3.94322C6.28223 4.11855 5.89823 4.26989 5.6229 4.43255C5.33957 4.59922 5.05357 4.84589 4.99357 5.25722L5.9829 5.40122L5.98023 5.40789L5.9849 5.40189C6.0276 5.35874 6.07661 5.32233 6.13023 5.29389C6.32357 5.18055 6.62223 5.05989 7.0929 4.87189L6.7209 3.94322ZM7.7489 7.76589C7.73423 7.51989 7.7269 7.25389 7.6089 7.01722L6.71357 7.46255L6.7169 7.47255C6.72001 7.48055 6.72334 7.49833 6.7269 7.52589C6.73623 7.58989 6.74157 7.67589 6.7509 7.82722L7.7489 7.76589ZM6.45157 7.22189C6.5649 7.31855 6.6289 7.37255 6.67357 7.41722C6.69268 7.43633 6.70446 7.449 6.7089 7.45522L6.71357 7.46255L7.6089 7.01722C7.49023 6.77855 7.28223 6.61455 7.0969 6.45855L6.45157 7.22189ZM8.9689 8.69322C8.5449 8.97589 8.27557 9.15322 8.0729 9.24855C7.87557 9.34055 7.87823 9.28855 7.9229 9.31189L7.45423 10.1952C7.8289 10.3939 8.2009 10.2919 8.49557 10.1552C8.78423 10.0199 9.1289 9.78855 9.52357 9.52522L8.9689 8.69322ZM6.76757 8.08922C6.79757 8.57989 6.8229 9.00255 6.88823 9.32189C6.95423 9.64189 7.08757 10.0012 7.45423 10.1952L7.9229 9.31189C7.96023 9.33189 7.9149 9.34989 7.86757 9.11989C7.81957 8.88789 7.7989 8.55122 7.76623 8.02789L6.76757 8.08922ZM10.6122 8.32255C10.3869 8.26055 10.1276 8.17722 9.86157 8.21989L10.0202 9.20722C10.0096 9.20922 10.0142 9.20455 10.0649 9.21389C10.1236 9.22589 10.2022 9.24722 10.3449 9.28655L10.6122 8.32255ZM9.73623 9.38389C9.8589 9.30189 9.9269 9.25722 9.97957 9.22789C10.0242 9.20322 10.0302 9.20589 10.0196 9.20789L9.86157 8.21989C9.59557 8.26255 9.37623 8.42189 9.18157 8.55189L9.73623 9.38389ZM11.7936 7.38255C11.9256 7.88922 12.0102 8.21589 12.0369 8.45122C12.0636 8.68455 12.0142 8.68122 12.0436 8.65122L12.7642 9.34455C13.0516 9.04522 13.0676 8.66189 13.0309 8.33789C12.9936 8.01455 12.8849 7.60455 12.7609 7.12922L11.7936 7.38255ZM10.5896 9.35522C11.0469 9.48189 11.4469 9.59322 11.7629 9.63122C12.0862 9.66989 12.4709 9.64989 12.7642 9.34455L12.0436 8.65122C12.0782 8.61522 12.0969 8.66389 11.8816 8.63789C11.6589 8.61122 11.3482 8.52655 10.8569 8.39122L10.5896 9.35522ZM11.9389 5.68189C11.8122 5.88855 11.6656 6.10855 11.6269 6.37255L12.6162 6.51722L12.6189 6.50789L12.6402 6.46122C12.6873 6.3745 12.7376 6.28956 12.7909 6.20655L11.9389 5.68189ZM12.6949 6.87522C12.668 6.77824 12.6435 6.68041 12.6229 6.58189L12.6162 6.52722V6.51722L11.6269 6.37255C11.5882 6.63455 11.6649 6.88989 11.7269 7.12789L12.6949 6.87522ZM11.4502 4.17322C11.9562 4.20522 12.2762 4.22655 12.4949 4.27389C12.5546 4.28424 12.6123 4.30357 12.6662 4.33122C12.6733 4.33611 12.6756 4.33744 12.6729 4.33522L12.6689 4.32922L13.5636 3.88389C13.3782 3.51122 13.0289 3.36722 12.7076 3.29722C12.3956 3.22922 11.9836 3.20455 11.5122 3.17522L11.4502 4.17322ZM12.9269 5.98655C13.1802 5.57455 13.3996 5.21855 13.5276 4.92122C13.6576 4.61855 13.7476 4.25255 13.5636 3.88389L12.6682 4.32922L12.6676 4.32589V4.33989C12.6573 4.40466 12.6375 4.46756 12.6089 4.52655C12.5169 4.73989 12.3456 5.02255 12.0749 5.46189L12.9269 5.98655ZM9.91223 3.47855C10.0616 3.66789 10.2209 3.88522 10.4556 4.01055L10.9242 3.12722C10.9309 3.13055 10.9222 3.12855 10.8842 3.08855C10.8189 3.01369 10.756 2.93677 10.6956 2.85789L9.91223 3.47855ZM11.2589 3.15989C11.1631 3.15555 11.0668 3.14777 10.9716 3.13655C10.9222 3.12922 10.9169 3.12322 10.9242 3.12722L10.4556 4.01055C10.6936 4.13722 10.9629 4.14322 11.1962 4.15722L11.2589 3.15989ZM10.5342 2.65389C10.2329 2.27255 9.97223 1.94122 9.73757 1.72055C9.50223 1.49855 9.1809 1.27922 8.76357 1.34589L8.92157 2.33322C8.86823 2.34189 8.88423 2.28989 9.05157 2.44855C9.22023 2.60722 9.42757 2.86722 9.75023 3.27522L10.5342 2.65389ZM8.42757 3.48722C8.60757 2.99922 8.72357 2.68722 8.83423 2.48322C8.94423 2.28055 8.97557 2.32455 8.92157 2.33322L8.76357 1.34589C8.34623 1.41255 8.10957 1.72189 7.9549 2.00589C7.80157 2.28922 7.6569 2.68589 7.4889 3.14189L8.42757 3.48722ZM5.17023 4.92389C3.43223 6.19522 2.19957 8.57722 2.83957 12.5792L3.8269 12.4219C3.23357 8.71122 4.38557 6.73722 5.7609 5.73122L5.17023 4.92389ZM3.8069 12.6612C4.28423 11.2546 5.76957 10.0506 7.52223 9.45989L7.20157 8.51189C5.2789 9.16055 3.47357 10.5319 2.85957 12.3399L3.8069 12.6612Z" fill="#2275E6"/>
<path d="M7.35398 11.167C7.35398 11.167 7.77665 12.0937 8.29665 12.4137C8.81665 12.7317 9.83398 12.687 9.83398 12.687C9.83398 12.687 8.90732 13.109 8.58732 13.629C8.26865 14.149 8.31398 15.167 8.31398 15.167C8.31398 15.167 7.89132 14.2404 7.37132 13.9204C6.85198 13.603 5.83398 13.647 5.83398 13.647C5.83398 13.647 6.76065 13.225 7.08065 12.705C7.39932 12.185 7.35398 11.167 7.35398 11.167ZM12.8207 10.5004C12.8207 10.5004 12.5393 11.1184 12.1927 11.331C11.846 11.5437 11.1673 11.5137 11.1673 11.5137C11.1673 11.5137 11.7853 11.795 11.998 12.1417C12.2107 12.4884 12.1807 13.167 12.1807 13.167C12.1807 13.167 12.462 12.549 12.8087 12.3364C13.1553 12.1237 13.834 12.1537 13.834 12.1537C13.834 12.1537 13.216 11.8724 13.0033 11.5257C12.7907 11.179 12.8207 10.5004 12.8207 10.5004Z" stroke="#2275E6" stroke-width="0.666667" stroke-linejoin="round"/>
</svg>
