<svg width="24" height="24" viewBox="0 0 24 24" fill="none" xmlns="http://www.w3.org/2000/svg">
<path d="M17.1131 15.068H13.0231V12.614L10.5391 16.09H12.0001V22.226L17.1131 15.068Z" fill="#C8DFFF"/>
<path d="M23.249 11.489L21.715 6.88705H18.647L16.09 1.77405H11.236L8.421 4.84205H4.33L0.75 10.466L4.33 15.068H8.64L7.91 16.09H10.539L11.269 15.068H20.692L23.249 11.489Z" fill="#FCFCFC"/>
<path d="M10.465 12.5111H6.375L4.329 10.4661H0.75L4.33 15.0681H8.639L10.465 12.5111ZM20.179 11.4891L18.646 12.5111H13.022V12.6141L11.269 15.0681H20.691L23.248 11.4881L20.179 11.4891Z" fill="#C8DFFF"/>
<path d="M19.158 15.068H20.692L23.249 11.488L21.715 6.88705H18.647M18.647 6.88705L16.09 1.77405H11.233L8.421 4.84205H4.33L0.75 10.466L4.33 15.068H5.863M18.647 6.88705H15.068" stroke="#2275E6" stroke-linecap="round" stroke-linejoin="round"/>
<path d="M17.1132 15.068H13.0232V8.93201L7.91016 16.09H12.0002V22.226L17.1132 15.068Z" stroke="#2275E6" stroke-linecap="round" stroke-linejoin="round"/>
</svg>
