<svg width="12" height="10" viewBox="0 0 12 10" fill="none" xmlns="http://www.w3.org/2000/svg">
<path d="M11.04 4.29L7.04 0.29C6.65333 -0.0966666 6.01333 -0.0966666 5.62667 0.29C5.24 0.676667 5.24 1.31667 5.62667 1.70333L7.92 3.99667H1C0.453333 3.99667 0 4.45 0 4.99667C0 5.54333 0.453333 5.99667 1 5.99667H7.92L5.62667 8.29C5.24 8.67667 5.24 9.31667 5.62667 9.70333C5.82667 9.90333 6.08 9.99667 6.33333 9.99667C6.58667 9.99667 6.84 9.90333 7.04 9.70333L11.04 5.70333C11.4267 5.31667 11.4267 4.67667 11.04 4.29Z" fill="currentColor"/>
</svg>
