<svg width="14" height="14" viewBox="0 0 14 14" fill="none" xmlns="http://www.w3.org/2000/svg">
<path d="M9.33333 13.2708H4.66667C1.3125 13.2708 1.3125 11.4917 1.3125 9.91667V9.33333C1.3125 8.0325 1.3125 6.5625 4.08333 6.5625C4.7775 6.5625 5.03417 6.73167 5.39583 7C5.41333 7.0175 5.43667 7.02917 5.45417 7.0525L6.04917 7.6825C6.55083 8.21333 7.46083 8.21333 7.9625 7.6825L8.5575 7.0525C8.575 7.035 8.5925 7.0175 8.61583 7C8.9775 6.72583 9.23417 6.5625 9.92833 6.5625C12.6992 6.5625 12.6992 8.0325 12.6992 9.33333V9.91667C12.6875 12.145 11.5617 13.2708 9.33333 13.2708ZM4.08333 7.4375C2.1875 7.4375 2.1875 8.0325 2.1875 9.33333V9.91667C2.1875 11.515 2.1875 12.3958 4.66667 12.3958H9.33333C11.0717 12.3958 11.8125 11.655 11.8125 9.91667V9.33333C11.8125 8.0325 11.8125 7.4375 9.91667 7.4375C9.49667 7.4375 9.40917 7.49 9.15833 7.67667L8.5925 8.2775C8.1725 8.72083 7.60667 8.96583 7 8.96583C6.39333 8.96583 5.8275 8.72083 5.4075 8.2775L4.84167 7.67667C4.59083 7.49 4.50333 7.4375 4.08333 7.4375Z" fill="currentColor"/>
<path d="M11.0846 7.43746C10.8455 7.43746 10.6471 7.23913 10.6471 6.99996V3.49996C10.6471 2.19913 10.6471 1.60413 8.7513 1.60413H5.2513C3.35547 1.60413 3.35547 2.19913 3.35547 3.49996V6.99996C3.35547 7.23913 3.15714 7.43746 2.91797 7.43746C2.6788 7.43746 2.48047 7.23913 2.48047 6.99996V3.49996C2.48047 2.19913 2.48047 0.729126 5.2513 0.729126H8.7513C11.5221 0.729126 11.5221 2.19913 11.5221 3.49996V6.99996C11.5221 7.23913 11.3238 7.43746 11.0846 7.43746Z" fill="currentColor"/>
<path d="M8.09484 5.82166H6.15234C5.91318 5.82166 5.71484 5.62332 5.71484 5.38416C5.71484 5.14499 5.91318 4.94666 6.15234 4.94666H8.09484C8.33401 4.94666 8.53234 5.14499 8.53234 5.38416C8.53234 5.62332 8.33984 5.82166 8.09484 5.82166Z" fill="currentColor"/>
<path d="M8.58854 4.07166H5.67188C5.43271 4.07166 5.23438 3.87332 5.23438 3.63416C5.23438 3.39499 5.43271 3.19666 5.67188 3.19666H8.58854C8.82771 3.19666 9.02604 3.39499 9.02604 3.63416C9.02604 3.87332 8.83354 4.07166 8.58854 4.07166Z" fill="currentColor"/>
</svg>
