<svg width="16" height="16" viewBox="0 0 16 16" fill="none" xmlns="http://www.w3.org/2000/svg">
<path d="M8.10573 7.74671C8.08573 7.74671 8.0724 7.74671 8.0524 7.74671C8.01906 7.74004 7.9724 7.74004 7.9324 7.74671C5.99906 7.68671 4.53906 6.16671 4.53906 4.29337C4.53906 2.38671 6.0924 0.833374 7.99906 0.833374C9.90573 0.833374 11.4591 2.38671 11.4591 4.29337C11.4524 6.16671 9.98573 7.68671 8.12573 7.74671C8.11906 7.74671 8.1124 7.74671 8.10573 7.74671ZM7.99906 1.83337C6.64573 1.83337 5.53906 2.94004 5.53906 4.29337C5.53906 5.62671 6.57906 6.70004 7.90573 6.74671C7.93906 6.74004 8.0324 6.74004 8.11906 6.74671C9.42573 6.68671 10.4524 5.61337 10.4591 4.29337C10.4591 2.94004 9.3524 1.83337 7.99906 1.83337Z" fill="currentColor"/>
<path d="M8.11307 15.0333C6.80641 15.0333 5.49307 14.7 4.49974 14.0333C3.57307 13.42 3.06641 12.58 3.06641 11.6666C3.06641 10.7533 3.57307 9.90663 4.49974 9.28663C6.49974 7.95996 9.73974 7.95996 11.7264 9.28663C12.6464 9.89996 13.1597 10.74 13.1597 11.6533C13.1597 12.5666 12.6531 13.4133 11.7264 14.0333C10.7264 14.7 9.41974 15.0333 8.11307 15.0333ZM5.05307 10.1266C4.41307 10.5533 4.06641 11.1 4.06641 11.6733C4.06641 12.24 4.41974 12.7866 5.05307 13.2066C6.71307 14.32 9.51307 14.32 11.1731 13.2066C11.8131 12.78 12.1597 12.2333 12.1597 11.66C12.1597 11.0933 11.8064 10.5466 11.1731 10.1266C9.51307 9.01996 6.71307 9.01996 5.05307 10.1266Z" fill="currentColor"/>
</svg>
