<svg width="16" height="16" viewBox="0 0 16 16" fill="none" xmlns="http://www.w3.org/2000/svg">
<path d="M7.9987 15.1667C4.04536 15.1667 0.832031 11.9534 0.832031 8.00004C0.832031 4.04671 4.04536 0.833374 7.9987 0.833374C11.952 0.833374 15.1654 4.04671 15.1654 8.00004C15.1654 11.9534 11.952 15.1667 7.9987 15.1667ZM7.9987 1.83337C4.5987 1.83337 1.83203 4.60004 1.83203 8.00004C1.83203 11.4 4.5987 14.1667 7.9987 14.1667C11.3987 14.1667 14.1654 11.4 14.1654 8.00004C14.1654 4.60004 11.3987 1.83337 7.9987 1.83337Z" fill="currentColor"/>
<path d="M8 9.16671C7.72667 9.16671 7.5 8.94004 7.5 8.66671V5.33337C7.5 5.06004 7.72667 4.83337 8 4.83337C8.27333 4.83337 8.5 5.06004 8.5 5.33337V8.66671C8.5 8.94004 8.27333 9.16671 8 9.16671Z" fill="currentColor"/>
<path d="M7.9987 11.3333C7.91203 11.3333 7.82536 11.3133 7.74536 11.28C7.66536 11.2466 7.59203 11.2 7.52536 11.14C7.46536 11.0733 7.4187 11.0066 7.38536 10.92C7.35203 10.84 7.33203 10.7533 7.33203 10.6666C7.33203 10.58 7.35203 10.4933 7.38536 10.4133C7.4187 10.3333 7.46536 10.26 7.52536 10.1933C7.59203 10.1333 7.66536 10.0866 7.74536 10.0533C7.90536 9.98663 8.09203 9.98663 8.25203 10.0533C8.33203 10.0866 8.40536 10.1333 8.47203 10.1933C8.53203 10.26 8.5787 10.3333 8.61203 10.4133C8.64536 10.4933 8.66536 10.58 8.66536 10.6666C8.66536 10.7533 8.64536 10.84 8.61203 10.92C8.5787 11.0066 8.53203 11.0733 8.47203 11.14C8.40536 11.2 8.33203 11.2466 8.25203 11.28C8.17203 11.3133 8.08536 11.3333 7.9987 11.3333Z" fill="currentColor"/>
</svg>
