<svg width="16" height="16" viewBox="0 0 16 16" fill="none" xmlns="http://www.w3.org/2000/svg">
<path d="M12 7.16671C11.7267 7.16671 11.5 6.94004 11.5 6.66671V5.33337C11.5 3.23337 10.9067 1.83337 8 1.83337C5.09333 1.83337 4.5 3.23337 4.5 5.33337V6.66671C4.5 6.94004 4.27333 7.16671 4 7.16671C3.72667 7.16671 3.5 6.94004 3.5 6.66671V5.33337C3.5 3.40004 3.96667 0.833374 8 0.833374C12.0333 0.833374 12.5 3.40004 12.5 5.33337V6.66671C12.5 6.94004 12.2733 7.16671 12 7.16671Z" fill="currentColor"/>
<path d="M7.9987 12.8333C6.80536 12.8333 5.83203 11.86 5.83203 10.6667C5.83203 9.47333 6.80536 8.5 7.9987 8.5C9.19203 8.5 10.1654 9.47333 10.1654 10.6667C10.1654 11.86 9.19203 12.8333 7.9987 12.8333ZM7.9987 9.5C7.3587 9.5 6.83203 10.0267 6.83203 10.6667C6.83203 11.3067 7.3587 11.8333 7.9987 11.8333C8.6387 11.8333 9.16536 11.3067 9.16536 10.6667C9.16536 10.0267 8.6387 9.5 7.9987 9.5Z" fill="currentColor"/>
<path d="M11.332 15.1666H4.66536C1.72536 15.1666 0.832031 14.2733 0.832031 11.3333V9.99996C0.832031 7.05996 1.72536 6.16663 4.66536 6.16663H11.332C14.272 6.16663 15.1654 7.05996 15.1654 9.99996V11.3333C15.1654 14.2733 14.272 15.1666 11.332 15.1666ZM4.66536 7.16663C2.2787 7.16663 1.83203 7.61996 1.83203 9.99996V11.3333C1.83203 13.7133 2.2787 14.1666 4.66536 14.1666H11.332C13.7187 14.1666 14.1654 13.7133 14.1654 11.3333V9.99996C14.1654 7.61996 13.7187 7.16663 11.332 7.16663H4.66536Z" fill="currentColor"/>
</svg>
