<svg width="16" height="16" viewBox="0 0 16 16" fill="none" xmlns="http://www.w3.org/2000/svg">
<path d="M5.33203 14.8799C5.14536 14.8799 4.95202 14.8332 4.77869 14.7399C4.39869 14.5399 4.16536 14.1399 4.16536 13.7132V12.7666C2.15203 12.5599 0.832031 11.0799 0.832031 8.95988L0.832031 4.95992C0.832031 2.66659 2.37203 1.12659 4.66536 1.12659L11.332 1.12659C13.6254 1.12659 15.1654 2.66659 15.1654 4.95992L15.1654 8.95988C15.1654 11.2532 13.6254 12.7932 11.332 12.7932H8.81869L5.97868 14.6866C5.78535 14.8133 5.5587 14.8799 5.33203 14.8799ZM4.66536 2.11991C2.94536 2.11991 1.83203 3.23325 1.83203 4.95325L1.83203 8.95329C1.83203 10.6733 2.94536 11.7866 4.66536 11.7866C4.9387 11.7866 5.16536 12.0133 5.16536 12.2866V13.7066C5.16536 13.7933 5.2187 13.8333 5.25203 13.8533C5.28537 13.8733 5.35204 13.8933 5.42537 13.8466L8.39205 11.8733C8.47205 11.82 8.57204 11.7866 8.67204 11.7866H11.3387C13.0587 11.7866 14.172 10.6733 14.172 8.95329L14.172 4.95325C14.172 3.23325 13.0587 2.11991 11.3387 2.11991L4.66536 2.11991Z" fill="currentColor"/>
<path d="M8.00118 8.07336C7.72785 8.07336 7.50118 7.8467 7.50118 7.57336L7.50118 7.43339C7.50118 6.66006 8.06784 6.28005 8.28117 6.13338C8.52784 5.96672 8.60783 5.85339 8.60783 5.68005C8.60783 5.34672 8.33451 5.07336 8.00118 5.07336C7.66785 5.07336 7.39453 5.34672 7.39453 5.68005C7.39453 5.95339 7.16786 6.18005 6.89453 6.18005C6.6212 6.18005 6.39453 5.95339 6.39453 5.68005C6.39453 4.79339 7.11451 4.07336 8.00118 4.07336C8.88785 4.07336 9.60783 4.79339 9.60783 5.68005C9.60783 6.44005 9.04785 6.82004 8.84119 6.96004C8.58119 7.13338 8.50118 7.24672 8.50118 7.43339V7.57336C8.50118 7.85336 8.27451 8.07336 8.00118 8.07336Z" fill="currentColor"/>
<path d="M8 9.73328C7.72 9.73328 7.5 9.50661 7.5 9.23328C7.5 8.95994 7.72667 8.73328 8 8.73328C8.27333 8.73328 8.5 8.95994 8.5 9.23328C8.5 9.50661 8.28 9.73328 8 9.73328Z" fill="currentColor"/>
</svg>
