<svg width="20" height="20" viewBox="0 0 20 20" fill="none" xmlns="http://www.w3.org/2000/svg">
<path d="M9.58464 18.125C4.8763 18.125 1.04297 14.2917 1.04297 9.58335C1.04297 4.87502 4.8763 1.04169 9.58464 1.04169C14.293 1.04169 18.1263 4.87502 18.1263 9.58335C18.1263 14.2917 14.293 18.125 9.58464 18.125ZM9.58464 2.29169C5.55964 2.29169 2.29297 5.56669 2.29297 9.58335C2.29297 13.6 5.55964 16.875 9.58464 16.875C13.6096 16.875 16.8763 13.6 16.8763 9.58335C16.8763 5.56669 13.6096 2.29169 9.58464 2.29169Z" fill="currentColor"/>
<path d="M18.3326 18.9583C18.1742 18.9583 18.0159 18.9 17.8909 18.775L16.2242 17.1083C15.9826 16.8667 15.9826 16.4667 16.2242 16.225C16.4659 15.9833 16.8659 15.9833 17.1076 16.225L18.7742 17.8917C19.0159 18.1333 19.0159 18.5333 18.7742 18.775C18.6492 18.9 18.4909 18.9583 18.3326 18.9583Z" fill="currentColor"/>
</svg>
