<svg width="18" height="18" viewBox="0 0 18 18" fill="none" xmlns="http://www.w3.org/2000/svg">
<path d="M10.6652 16.2225C9.78016 16.2225 8.52766 15.6 7.53766 12.6225L6.99766 11.0025L5.37766 10.4625C2.40766 9.47249 1.78516 8.21999 1.78516 7.33499C1.78516 6.45749 2.40766 5.19749 5.37766 4.19999L11.7452 2.07749C13.3352 1.54499 14.6627 1.70249 15.4802 2.51249C16.2977 3.32249 16.4552 4.65749 15.9227 6.24749L13.8002 12.615C12.8027 15.6 11.5502 16.2225 10.6652 16.2225ZM5.73016 5.27249C3.64516 5.96999 2.90266 6.79499 2.90266 7.33499C2.90266 7.87499 3.64516 8.69999 5.73016 9.38999L7.62016 10.02C7.78516 10.0725 7.92016 10.2075 7.97266 10.3725L8.60266 12.2625C9.29266 14.3475 10.1252 15.09 10.6652 15.09C11.2052 15.09 12.0302 14.3475 12.7277 12.2625L14.8502 5.89499C15.2327 4.73999 15.1652 3.79499 14.6777 3.30749C14.1902 2.81999 13.2452 2.75999 12.0977 3.14249L5.73016 5.27249Z" fill="currentColor"/>
<path d="M7.58406 10.8C7.44156 10.8 7.29906 10.7475 7.18656 10.635C6.96906 10.4175 6.96906 10.0575 7.18656 9.84L9.87156 7.1475C10.0891 6.93 10.4491 6.93 10.6666 7.1475C10.8841 7.365 10.8841 7.725 10.6666 7.9425L7.98156 10.635C7.87656 10.7475 7.72656 10.8 7.58406 10.8Z" fill="currentColor"/>
</svg>
