<svg width="16" height="16" viewBox="0 0 16 16" fill="none" xmlns="http://www.w3.org/2000/svg">
<path d="M8 10.5C6.62 10.5 5.5 9.38 5.5 8C5.5 6.62 6.62 5.5 8 5.5C9.38 5.5 10.5 6.62 10.5 8C10.5 9.38 9.38 10.5 8 10.5ZM8 6.5C7.17333 6.5 6.5 7.17333 6.5 8C6.5 8.82667 7.17333 9.5 8 9.5C8.82667 9.5 9.5 8.82667 9.5 8C9.5 7.17333 8.82667 6.5 8 6.5Z" fill="currentColor"/>
<path d="M10.1387 14.7933C9.9987 14.7933 9.8587 14.7733 9.7187 14.74C9.30536 14.6267 8.9587 14.3667 8.7387 14L8.6587 13.8667C8.26536 13.1867 7.72536 13.1867 7.33203 13.8667L7.2587 13.9933C7.0387 14.3667 6.69203 14.6333 6.2787 14.74C5.8587 14.8533 5.42536 14.7933 5.0587 14.5733L3.91203 13.9133C3.50536 13.68 3.21203 13.3 3.08536 12.84C2.96536 12.38 3.02536 11.9067 3.2587 11.5C3.45203 11.16 3.50536 10.8533 3.39203 10.66C3.2787 10.4667 2.99203 10.3533 2.5987 10.3533C1.62536 10.3533 0.832031 9.55999 0.832031 8.58665L0.832031 7.41332C0.832031 6.43999 1.62536 5.64665 2.5987 5.64665C2.99203 5.64665 3.2787 5.53332 3.39203 5.33999C3.50536 5.14665 3.4587 4.83999 3.2587 4.49999C3.02536 4.09332 2.96536 3.61332 3.08536 3.15999C3.20536 2.69999 3.4987 2.31999 3.91203 2.08665L5.06536 1.42665C5.8187 0.979988 6.81203 1.23999 7.26536 2.00665L7.34537 2.13999C7.7387 2.81999 8.2787 2.81999 8.67203 2.13999L8.74536 2.01332C9.1987 1.23999 10.192 0.979988 10.952 1.43332L12.0987 2.09332C12.5054 2.32665 12.7987 2.70665 12.9254 3.16665C13.0454 3.62665 12.9854 4.09999 12.752 4.50665C12.5587 4.84665 12.5054 5.15332 12.6187 5.34665C12.732 5.53999 13.0187 5.65332 13.412 5.65332C14.3854 5.65332 15.1787 6.44665 15.1787 7.41999V8.59332C15.1787 9.56665 14.3854 10.36 13.412 10.36C13.0187 10.36 12.732 10.4733 12.6187 10.6667C12.5054 10.86 12.552 11.1667 12.752 11.5067C12.9854 11.9133 13.052 12.3933 12.9254 12.8467C12.8054 13.3067 12.512 13.6867 12.0987 13.92L10.9454 14.58C10.692 14.72 10.4187 14.7933 10.1387 14.7933ZM7.9987 12.3267C8.59203 12.3267 9.14536 12.7 9.52536 13.36L9.5987 13.4867C9.6787 13.6267 9.81203 13.7267 9.97203 13.7667C10.132 13.8067 10.292 13.7867 10.4254 13.7067L11.5787 13.04C11.752 12.94 11.8854 12.7733 11.9387 12.5733C11.992 12.3733 11.9654 12.1667 11.8654 11.9933C11.4854 11.34 11.4387 10.6667 11.732 10.1533C12.0254 9.63999 12.632 9.34665 13.392 9.34665C13.8187 9.34665 14.1587 9.00665 14.1587 8.57999V7.40665C14.1587 6.98665 13.8187 6.63999 13.392 6.63999C12.632 6.63999 12.0254 6.34665 11.732 5.83332C11.4387 5.31999 11.4854 4.64665 11.8654 3.99332C11.9654 3.81999 11.992 3.61332 11.9387 3.41332C11.8854 3.21332 11.7587 3.05332 11.5854 2.94665L10.432 2.28665C10.1454 2.11332 9.76536 2.21332 9.59203 2.50665L9.5187 2.63332C9.1387 3.29332 8.58536 3.66665 7.99203 3.66665C7.3987 3.66665 6.84536 3.29332 6.46536 2.63332L6.39203 2.49999C6.22536 2.21999 5.85203 2.11999 5.56536 2.28665L4.41203 2.95332C4.2387 3.05332 4.10536 3.21999 4.05203 3.41999C3.9987 3.61999 4.02536 3.82665 4.12536 3.99999C4.50536 4.65332 4.55203 5.32665 4.2587 5.83999C3.96536 6.35332 3.3587 6.64665 2.5987 6.64665C2.17203 6.64665 1.83203 6.98665 1.83203 7.41332L1.83203 8.58665C1.83203 9.00665 2.17203 9.35332 2.5987 9.35332C3.3587 9.35332 3.96536 9.64665 4.2587 10.16C4.55203 10.6733 4.50536 11.3467 4.12536 12C4.02536 12.1733 3.9987 12.38 4.05203 12.58C4.10536 12.78 4.23203 12.94 4.40536 13.0467L5.5587 13.7067C5.6987 13.7933 5.86536 13.8133 6.0187 13.7733C6.1787 13.7333 6.31203 13.6267 6.3987 13.4867L6.47203 13.36C6.85203 12.7067 7.40536 12.3267 7.9987 12.3267Z" fill="currentColor"/>
</svg>
